<?xml version="1.0" encoding="utf-8"?>
<!-- Generator: Adobe Illustrator 15.0.0, SVG Export Plug-In . SVG Version: 6.00 Build 0)  -->
<!DOCTYPE svg PUBLIC "-//W3C//DTD SVG 1.1 Tiny//EN" "http://www.w3.org/Graphics/SVG/1.1/DTD/svg11-tiny.dtd">
<svg version="1.1" baseProfile="tiny" id="Layer_1" xmlns="http://www.w3.org/2000/svg" xmlns:xlink="http://www.w3.org/1999/xlink"
	 x="0px" y="0px" width="50px" height="50px" viewBox="0 0 50 50" overflow="inherit" xml:space="preserve">
<path fill="#59595A" d="M23.265,30.324l-9.887,9.887l-3.64-3.641l9.942-9.941c-2.687-4.42-2.134-10.246,1.668-14.049
	c4.469-4.469,11.732-4.451,16.224,0.04c4.491,4.491,4.509,11.754,0.04,16.224C33.723,32.732,27.718,33.223,23.265,30.324z
	 M24.601,15.833c-2.681,2.681-2.67,7.039,0.024,9.733s7.053,2.705,9.733,0.025c2.682-2.681,2.671-7.04-0.023-9.734
	C31.641,13.162,27.282,13.152,24.601,15.833z"/>
</svg>
